<svg width="16" height="14" viewBox="0 0 16 14" fill="none" xmlns="http://www.w3.org/2000/svg">
<path d="M15.4995 7.00001C15.4995 7.16577 15.4337 7.32474 15.3165 7.44195C15.1992 7.55916 15.0403 7.62501 14.8745 7.62501H2.63311L7.1917 12.1828C7.24977 12.2409 7.29584 12.3098 7.32726 12.3857C7.35869 12.4616 7.37486 12.5429 7.37486 12.625C7.37486 12.7071 7.35869 12.7885 7.32726 12.8643C7.29584 12.9402 7.24977 13.0091 7.1917 13.0672C7.13363 13.1253 7.0647 13.1713 6.98883 13.2028C6.91296 13.2342 6.83164 13.2504 6.74952 13.2504C6.66739 13.2504 6.58608 13.2342 6.51021 13.2028C6.43433 13.1713 6.3654 13.1253 6.30733 13.0672L0.682328 7.4422C0.624217 7.38415 0.578118 7.31522 0.546665 7.23935C0.515213 7.16348 0.499023 7.08215 0.499023 7.00001C0.499023 6.91788 0.515213 6.83655 0.546665 6.76067C0.578118 6.6848 0.624217 6.61587 0.682328 6.55782L6.30733 0.932824C6.4246 0.815549 6.58366 0.749664 6.74952 0.749664C6.91537 0.749664 7.07443 0.815549 7.1917 0.932824C7.30898 1.0501 7.37486 1.20916 7.37486 1.37501C7.37486 1.54086 7.30898 1.69992 7.1917 1.8172L2.63311 6.37501H14.8745C15.0403 6.37501 15.1992 6.44086 15.3165 6.55807C15.4337 6.67528 15.4995 6.83425 15.4995 7.00001Z" fill="#7A7B9F"/>
</svg>
