<svg width="14" height="14" viewBox="0 0 14 14" fill="none" xmlns="http://www.w3.org/2000/svg">
<path d="M13.6431 6.17812L10.8306 8.60499L11.6875 12.2344C11.7347 12.4314 11.7226 12.638 11.6525 12.8281C11.5824 13.0182 11.4575 13.1833 11.2937 13.3025C11.1298 13.4216 10.9343 13.4896 10.7319 13.4977C10.5294 13.5058 10.3291 13.4538 10.1562 13.3481L6.99996 11.4056L3.84184 13.3481C3.66898 13.4532 3.4689 13.5047 3.2668 13.4963C3.06469 13.4879 2.8696 13.4199 2.70609 13.3008C2.54257 13.1817 2.41795 13.0169 2.3479 12.8271C2.27786 12.6374 2.26553 12.4311 2.31246 12.2344L3.17246 8.60499L0.359961 6.17812C0.207022 6.04593 0.0964141 5.87163 0.0419501 5.67696C-0.0125139 5.48229 -0.00842004 5.27589 0.0537205 5.08353C0.115861 4.89118 0.233294 4.72139 0.391354 4.59538C0.549414 4.46937 0.741096 4.39271 0.942461 4.37499L4.62996 4.07749L6.05246 0.63499C6.12946 0.447376 6.2605 0.286895 6.42894 0.173951C6.59738 0.0610074 6.7956 0.000701904 6.9984 0.000701904C7.2012 0.000701904 7.39942 0.0610074 7.56785 0.173951C7.73629 0.286895 7.86734 0.447376 7.94434 0.63499L9.36621 4.07749L13.0537 4.37499C13.2555 4.39205 13.4477 4.46828 13.6064 4.59412C13.765 4.71996 13.883 4.88981 13.9455 5.0824C14.008 5.27499 14.0123 5.48175 13.9579 5.67677C13.9034 5.87179 13.7926 6.04641 13.6393 6.17874L13.6431 6.17812Z" fill="#E4E5EC"/>
</svg>
