<svg width="18" height="18" viewBox="0 0 18 18" fill="none" xmlns="http://www.w3.org/2000/svg">
<path d="M17.6864 6.59845C17.6082 6.35824 17.4607 6.14652 17.2625 5.98998C17.0642 5.83344 16.8241 5.73907 16.5723 5.71876L11.9629 5.34689L10.1832 1.04298C10.087 0.808465 9.92318 0.607864 9.71263 0.466684C9.50208 0.325504 9.25431 0.250122 9.00081 0.250122C8.74731 0.250122 8.49954 0.325504 8.28899 0.466684C8.07844 0.607864 7.91463 0.808465 7.81839 1.04298L6.04026 5.34611L1.42854 5.71876C1.17634 5.74009 0.936035 5.83538 0.737742 5.99267C0.53945 6.14997 0.391985 6.36229 0.313825 6.60303C0.235666 6.84376 0.230286 7.10221 0.298361 7.34599C0.366435 7.58977 0.504937 7.80804 0.696513 7.97345L4.21214 11.007L3.14104 15.543C3.08114 15.7894 3.09581 16.0481 3.18318 16.2862C3.27056 16.5242 3.4267 16.731 3.63179 16.8801C3.83688 17.0293 4.08167 17.1142 4.33509 17.124C4.5885 17.1338 4.83911 17.0681 5.05511 16.9352L9.00042 14.507L12.9481 16.9352C13.1641 17.0665 13.4142 17.1309 13.6669 17.1204C13.9195 17.1099 14.1634 17.0248 14.3678 16.876C14.5722 16.7271 14.7279 16.5211 14.8155 16.2839C14.903 16.0467 14.9185 15.7889 14.8598 15.543L13.7848 11.0063L17.3004 7.97267C17.4935 7.80753 17.6333 7.58879 17.702 7.34415C17.7707 7.09951 17.7653 6.83999 17.6864 6.59845ZM16.4879 7.0258L12.6832 10.307C12.5965 10.3818 12.5319 10.479 12.4967 10.588C12.4614 10.697 12.4567 10.8136 12.4832 10.925L13.6457 15.8313C13.6487 15.838 13.649 15.8457 13.6466 15.8527C13.6441 15.8596 13.639 15.8654 13.6324 15.8688C13.6184 15.8797 13.6145 15.8774 13.6028 15.8688L9.32776 13.2399C9.22931 13.1793 9.11599 13.1473 9.00042 13.1473C8.88484 13.1473 8.77153 13.1793 8.67307 13.2399L4.39807 15.8703C4.38636 15.8774 4.38323 15.8797 4.36839 15.8703C4.36179 15.867 4.35674 15.8612 4.35427 15.8542C4.3518 15.8472 4.3521 15.8396 4.35511 15.8328L5.51761 10.9266C5.5441 10.8151 5.53946 10.6986 5.50419 10.5896C5.46892 10.4806 5.40437 10.3834 5.31761 10.3086L1.51292 7.02736C1.50354 7.01955 1.49495 7.01251 1.50276 6.9883C1.51058 6.96408 1.51683 6.9672 1.52854 6.96564L6.52229 6.56251C6.63683 6.55269 6.74644 6.51147 6.83907 6.44337C6.93169 6.37528 7.00374 6.28297 7.04729 6.17658L8.97073 1.51954C8.97698 1.50626 8.97933 1.50001 8.99808 1.50001C9.01683 1.50001 9.01917 1.50626 9.02542 1.51954L10.9535 6.17658C10.9975 6.28301 11.07 6.37522 11.1631 6.44305C11.2561 6.51088 11.3661 6.55168 11.4809 6.56095L16.4746 6.96408C16.4864 6.96408 16.4934 6.96408 16.5004 6.98673C16.5074 7.00939 16.5004 7.01798 16.4879 7.0258Z" fill="white"/>
</svg>
